<svg width="244" height="70" viewBox="0 0 244 70" fill="none" xmlns="http://www.w3.org/2000/svg">
<path d="M0.959961 0.919983C1.43996 4.43999 1.59996 6.75998 1.59996 12.76V55.64C1.59996 61 1.43996 64.36 0.959961 67.48H18.56C18.08 64.12 17.92 61.16 17.92 55.64V12.76C17.92 6.91999 18.08 4.19998 18.56 0.919983H0.959961Z" fill="white"/>
<path d="M74.86 33.48C72.22 22.84 63.66 16.76 51.34 16.76C35.74 16.76 25.66 27 25.66 43C25.66 50.84 28.22 57.88 32.86 62.44C37.26 66.92 43.82 69.32 51.5 69.32C60.78 69.32 68.06 66.04 72.06 60.12C73.58 57.8 74.54 55.64 75.42 52.2L60.7 49.88C60.38 51.72 59.98 52.52 59.26 53.56C57.66 55.8 54.78 57.08 51.66 57.08C45.26 57.08 41.18 51.48 41.18 42.84C41.18 34.04 45.02 28.92 51.5 28.92C54.38 28.92 56.62 29.88 58.22 31.72C59.26 32.92 59.74 34.04 60.46 36.44L74.86 33.48Z" fill="white"/>
<path d="M105.886 69.32C121.806 69.32 132.366 58.76 132.366 42.84C132.366 27 122.126 16.84 105.966 16.84C89.8062 16.84 79.5662 27 79.5662 43C79.5662 59.08 89.8062 69.32 105.886 69.32ZM106.046 28.84C112.846 28.84 116.926 34.12 116.926 43.08C116.926 51.96 112.926 57.16 105.966 57.16C99.0062 57.16 94.8462 51.8 94.8462 42.92C94.8462 34.12 99.0062 28.84 106.046 28.84Z" fill="white"/>
<path d="M155.394 67.48C154.914 63.32 154.754 59.96 154.754 55.4V39.24C158.194 33.64 162.194 30.84 166.674 30.84C169.074 30.84 170.914 31.64 171.954 33.08C172.914 34.44 173.234 35.8 173.234 39V55.4C173.234 60.28 173.074 63.64 172.594 67.48H189.234C188.834 64.12 188.594 60.12 188.594 55.48V35.4C188.594 29.08 187.234 25.16 184.034 21.96C181.074 19 176.674 17.48 171.154 17.48C164.594 17.48 159.714 19.48 154.674 24.28C154.674 23.72 154.754 22.52 154.754 22.04V18.68H138.834C139.314 21.88 139.474 25.24 139.474 30.76V55.4C139.474 60.36 139.314 63.72 138.834 67.48H155.394Z" fill="white"/>
<path d="M195.744 52.92C196.544 56.76 197.344 58.68 198.944 60.92C202.784 66.2 209.904 68.92 219.984 68.92C228.544 68.92 235.104 66.92 238.944 63.08C241.584 60.52 243.024 56.68 243.024 52.44C243.024 46.68 240.544 42.76 235.344 40.2C232.544 38.76 230.064 38.04 222.224 36.36C214.304 34.6 212.624 33.8 212.624 31.64C212.624 29.56 215.184 28.2 219.344 28.2C223.664 28.2 225.664 29.64 226.064 32.92L241.504 31.24C240.224 26.76 238.944 24.44 236.304 22.12C232.544 18.68 226.864 17 219.264 17C205.904 17 197.824 22.84 197.824 32.44C197.824 35.16 198.544 37.88 199.824 40.04C201.344 42.44 203.984 44.28 207.824 45.72C210.464 46.6 213.584 47.4 219.664 48.6C224.064 49.48 225.104 49.8 226.224 50.44C227.344 51.08 227.984 52.12 227.984 53.32C227.984 55.8 225.264 57.16 220.464 57.16C215.104 57.16 212.384 55.32 211.584 51.16L195.744 52.92Z" fill="white"/>
</svg>
